# xmcd
#
# Track frame offsets:
#	150
#	8162
#	16445
#	26252
#	40502
#	54477
#	69165
#	88207
#	102965
#	116615
#	129880
#	145500
#	159027
#	180767
#
# Disc length: 2698 seconds
#
# Revision: 1
# Processed by: cddbd v1.5.1PL0 Copyright (c) Steve Scherf et al.
# Submitted via: CDex 1.50Beta5
#
DISCID=950a880e
DTITLE=Various Artist - とうきょうデンキKIRAKIRA合唱団/THE HEROS
DYEAR=1900
DGENRE=
TTITLE0=小杉十郎太/レオのうた(ジャングル大帝・主題歌)
TTITLE1=中村大樹/マジンガーZ(マジンガーZ・主題歌)
TTITLE2=中原 茂/魔法のマンボ(魔法使いサリー・エンディング曲)
TTITLE3=かない みかたろう/マルス2015年(ジェッターマルス・主題歌)
TTITLE4=置鮎龍太郎/ローラーヒーロー・ムテキング(とんでも戦士ムテキング・主題歌)
TTITLE5=山寺宏一/真っ赤なスカーフ(宇宙戦艦ヤマト・エンディング曲)
TTITLE6=三木眞一郎/陽だまり(めぞん一刻・主題歌)
TTITLE7=松野太紀/恋の呪文はスキトキメキトキス(さすがの猿飛・主題歌)
TTITLE8=子安武人/グランプリの鷹(アローエンブレム グランプリの鷹・主題歌)
TTITLE9=関 智一/みなし児のバラード(タイガーマスク・エンディング曲)
TTITLE10=堀川 亮/ルパン三世のテーマ(新ルパン三世・主題歌)
TTITLE11=古川登志夫/たたかえ!ガ・キーン(マグネロボ ガ・キーン主題歌)
TTITLE12=とうきょうデンキKIRAKIRA合唱団/WE ARE THE HEROS(とうきょうデンキKIRAKIRA合唱団・エンディング曲III)
TTITLE13=WE ARE THE HEROS カラオケバージョン
EXTD=
EXTT0=
EXTT1=
EXTT2=
EXTT3=
EXTT4=
EXTT5=
EXTT6=
EXTT7=
EXTT8=
EXTT9=
EXTT10=
EXTT11=
EXTT12=
EXTT13=
PLAYORDER=
